<?xml version="1.0" encoding="utf-8"?>

<!-- Generator: Adobe Illustrator 21.1.0, SVG Export Plug-In . SVG Version: 6.00 Build 0)  -->
<svg version="1.1" id="svg-2" xmlns="http://www.w3.org/2000/svg" xmlns:xlink="http://www.w3.org/1999/xlink" x="0px" y="0px"
	 viewBox="0 0 1296 1728" style="enable-background:new 0 0 1296 1728;" xml:space="preserve">
	 <script src="https://ajax.googleapis.com/ajax/libs/jquery/3.2.1/jquery.min.js"> </script>
	 <script src="test.js"></script>
		
<style type="text/css">
	.st0{fill:#FFFFFF;stroke:#000000;stroke-miterlimit:10;}
	.st1{fill:url(#SVGID_1_);}
	.st2{fill:url(#SVGID_2_);}
	.st3{fill:url(#SVGID_3_);}
	.st4{fill:url(#SVGID_4_);}
	.st5{fill:url(#SVGID_5_);}
	.st6{fill:url(#SVGID_6_);}
	.st7{fill:url(#SVGID_7_);stroke:url(#SVGID_8_);stroke-miterlimit:10;}
	.st8{fill:url(#SVGID_9_);stroke:url(#SVGID_10_);stroke-miterlimit:10;}
	.st9{fill:url(#SVGID_11_);stroke:url(#SVGID_12_);stroke-miterlimit:10;}
	.st10{fill:url(#SVGID_13_);stroke:url(#SVGID_14_);stroke-miterlimit:10;}
	.st11{fill:url(#SVGID_15_);stroke:url(#SVGID_16_);stroke-miterlimit:10;}
	.st12{fill:url(#SVGID_17_);stroke:url(#SVGID_18_);stroke-miterlimit:10;}
	.st13{fill:url(#SVGID_19_);stroke:url(#SVGID_20_);stroke-miterlimit:10;}
	.st14{fill:url(#SVGID_21_);stroke:url(#SVGID_22_);stroke-miterlimit:10;}
	.st15{fill:url(#SVGID_23_);stroke:url(#SVGID_24_);stroke-miterlimit:10;}
	.st16{fill:url(#SVGID_25_);}
	.st17{fill:url(#SVGID_26_);}
	.st18{fill:url(#SVGID_27_);}
	.st19{fill:url(#SVGID_28_);}
	.st20{fill:url(#SVGID_29_);}
	.st21{fill:url(#SVGID_30_);stroke:#F200B3;stroke-width:0.7;stroke-miterlimit:10;}
					svg {
                        box-shadow: inset 0 0 5px #494848;
                        border-radius: 3px solid grey ;
                        
                    }
						.hide-top{
							opacity:0;
			            	transition: all .5s ease-in-out 4s ;
						}

                        .animate-hide-top{
                            animation: tube-show 2s ease-in-out 0s infinite  ;
                            animation-direction: alternate;
                        }
						.hide-show{
                            position: absolute;
							opacity:0;
                            transition: all 1s ease-in-out 1s ;
                        }
						.animate-hide-show{
                            animation: tube-hide 2s ease-in-out 0s infinite  ;
                            animation-direction: alternate;
                        }
                        @keyframes tube-hide{
                            0%{
                                opacity:0;
                            }
                            100%{
                                opacity: 1;
                            }
                        }
						@keyframes tube-show{
                            0%{
                                opacity:1;
                            }
                            100%{
                                opacity: 0;
                            }
                        }
</style>

<path class="st0" d="M597.4,1071.8"/>
<path class="st0" d="M1044.5,623.7"/>
<g>
	
		<linearGradient id="SVGID_1_" gradientUnits="userSpaceOnUse" x1="587.8688" y1="123.5687" x2="602.1248" y2="108.943" gradientTransform="matrix(1 0 0 1 0 432)">
		<stop  offset="8.648649e-02" style="stop-color:#FF81FF"/>
		<stop  offset="0.1171" style="stop-color:#FF90FF"/>
		<stop  offset="0.1539" style="stop-color:#FF9BFF"/>
		<stop  offset="0.1973" style="stop-color:#FF9EFF"/>
		<stop  offset="0.327" style="stop-color:#FF6DFF"/>
		<stop  offset="0.4835" style="stop-color:#FF6FFF"/>
		<stop  offset="0.5399" style="stop-color:#FF76FF"/>
		<stop  offset="0.5799" style="stop-color:#FF81FF"/>
		<stop  offset="0.6122" style="stop-color:#FF92FF"/>
		<stop  offset="0.6135" style="stop-color:#FF93FF"/>
		<stop  offset="0.7541" style="stop-color:#FF9DFE"/>
		<stop  offset="0.8919" style="stop-color:#FE7CF8"/>
		<stop  offset="1" style="stop-color:#FF57FF"/>
	</linearGradient>
	<path class="st1" d="M581.1,520.4c0.8,1.5,1.6,3,2.4,4.6c2.5,4.3,4.8,8.6,7.1,12.9c0.8,1.5,1.6,3,2.4,4.5c0.8,1.4,1.5,2.8,2.2,4.2
		c1,2.1,2.1,4.1,3.1,6.1c0.5,0.9,0.9,1.8,1.3,2.7c0.1,0.2,0.2,0.3,0.3,0.5c3.3,6.7,6.3,13.4,9,20c0.1,0,0.1,0,0.2,0
		C601.4,557.8,592,539.2,581.1,520.4z"/>
	
		<linearGradient id="SVGID_2_" gradientUnits="userSpaceOnUse" x1="764.2864" y1="1450.6691" x2="764.7083" y2="1450.2365" gradientTransform="matrix(1 0 0 -1 0 1728)">
		<stop  offset="8.648649e-02" style="stop-color:#FF6AFF"/>
		<stop  offset="0.1085" style="stop-color:#FF7FFF"/>
		<stop  offset="0.1351" style="stop-color:#FF90FF"/>
		<stop  offset="0.1636" style="stop-color:#FF9BFF"/>
		<stop  offset="0.1973" style="stop-color:#FF9EFF"/>
		<stop  offset="0.327" style="stop-color:#FF6DFF"/>
		<stop  offset="0.5359" style="stop-color:#FF95FF"/>
		<stop  offset="0.5919" style="stop-color:#FFA1FF"/>
		<stop  offset="0.7324" style="stop-color:#FF9AFE"/>
		<stop  offset="0.8919" style="stop-color:#FE66F8"/>
		<stop  offset="1" style="stop-color:#FF6AFF"/>
	</linearGradient>
	<path class="st2" d="M765.4,277.1l-1.8,0.9c0.5-0.3,1-0.5,1.5-0.8L765.4,277.1z"/>
	
		<linearGradient id="SVGID_3_" gradientUnits="userSpaceOnUse" x1="572.0072" y1="85.2291" x2="581.739" y2="70.8362" gradientTransform="matrix(1 0 0 1 0 432)">
		<stop  offset="8.648649e-02" style="stop-color:#FF81FF"/>
		<stop  offset="0.6905" style="stop-color:#FFC0FF"/>
		<stop  offset="0.7541" style="stop-color:#FFB4FE"/>
		<stop  offset="0.8" style="stop-color:#FE7CF8"/>
		<stop  offset="1" style="stop-color:#FF90FF"/>
	</linearGradient>
	<path class="st3" d="M570.6,501.1c4.4,7.9,8.7,15.9,12.9,23.9c-1-1.8-2.1-3.6-3.1-5.4c-1.8-3.1-3.6-6.1-5.5-9.2
		c-0.9-1.5-1.9-3.1-2.8-4.6l0,0c-0.8-1.2-1.5-2.4-2.3-3.7c-1-1.5-1.3-3.1-1.2-4.6C569.3,498.7,569.9,499.9,570.6,501.1z"/>
	
		<linearGradient id="SVGID_4_" gradientUnits="userSpaceOnUse" x1="588.3269" y1="130.0939" x2="607.1847" y2="102.2042" gradientTransform="matrix(1 0 0 1 0 432)">
		<stop  offset="8.648649e-02" style="stop-color:#FF81FF"/>
		<stop  offset="0.6905" style="stop-color:#FFC0FF"/>
		<stop  offset="0.7541" style="stop-color:#FFB4FE"/>
		<stop  offset="0.8" style="stop-color:#FE7CF8"/>
		<stop  offset="1" style="stop-color:#FF90FF"/>
	</linearGradient>
	<path class="st4 " d="M599.8,556c3.2,6.7,6.2,13.3,9,19.9c-7.8-16.8-16.2-33.6-24.9-50.2c-0.1-0.2-0.2-0.4-0.3-0.7
		c2.5,4.3,4.8,8.6,7.1,12.9c0.8,1.5,1.6,3,2.4,4.5c0.7,1.4,1.5,2.8,2.2,4.2c1,2.1,2.1,4.1,3.1,6.1c0.5,0.9,0.9,1.8,1.3,2.7
		C599.6,555.7,599.7,555.8,599.8,556z"/>
	
		<linearGradient id="SVGID_5_" gradientUnits="userSpaceOnUse" x1="608.8029" y1="1152.079" x2="609.6538" y2="1150.8199" gradientTransform="matrix(1 0 0 -1 0 1728)">
		<stop  offset="8.648649e-02" style="stop-color:#FF81FF"/>
		<stop  offset="0.6905" style="stop-color:#FFC0FF"/>
		<stop  offset="0.7541" style="stop-color:#FFB4FE"/>
		<stop  offset="0.8" style="stop-color:#FE7CF8"/>
		<stop  offset="1" style="stop-color:#FF90FF"/>
	</linearGradient>
	<path class="st5" d="M609.4,576.5c0,0.2,0,0.4-0.1,0.6c-0.2-0.3-0.3-0.7-0.5-1.1c0.1,0,0.2,0,0.2,0s0,0,0.1,0c0,0,0.1,0,0.1,0.1
		l0,0l0,0c0,0,0,0,0,0.1l0,0c0,0,0,0,0,0.1C609.3,576.3,609.4,576.4,609.4,576.5L609.4,576.5z"/>
	
		<linearGradient id="SVGID_6_" gradientUnits="userSpaceOnUse" x1="609.2326" y1="146.2195" x2="609.8539" y2="145.3004" gradientTransform="matrix(1 0 0 1 0 432)">
		<stop  offset="8.648649e-02" style="stop-color:#FF81FF"/>
		<stop  offset="0.6905" style="stop-color:#FFC0FF"/>
		<stop  offset="0.7541" style="stop-color:#FFB4FE"/>
		<stop  offset="0.8" style="stop-color:#FE7CF8"/>
		<stop  offset="1" style="stop-color:#FF90FF"/>
	</linearGradient>
	<path class="st6" d="M609.8,578.4c-0.8,0-0.6-0.6-0.5-1.3C609.5,577.6,609.6,578,609.8,578.4z"/>
	
		<linearGradient id="SVGID_7_" gradientUnits="userSpaceOnUse" x1="572.8281" y1="78.4751" x2="575.8834" y2="76.7111" gradientTransform="matrix(1 0 0 1 0 432)">
		<stop  offset="0" style="stop-color:#FFFFFF"/>
		<stop  offset="1" style="stop-color:#FB89E3"/>
	</linearGradient>
	
		<linearGradient id="SVGID_8_" gradientUnits="userSpaceOnUse" x1="553.4247" y1="76.4719" x2="594.7603" y2="76.4719" gradientTransform="matrix(1 0 0 1 0 432)">
		<stop  offset="0" style="stop-color:#CFCFCF"/>
		<stop  offset="1" style="stop-color:#000000"/>
	</linearGradient>
	<path class="st7 " d="M570.6,501.1c3.5,6.4,7,12.9,10.5,19.4c-3.5-6.1-7.2-12.2-11.1-18.3c-0.9-1.3-1.2-2.8-1.2-4.2
		C569.4,499,570,500,570.6,501.1z"/>
	
		<linearGradient id="SVGID_9_" gradientUnits="userSpaceOnUse" x1="608.1672" y1="1152.2046" x2="609.7425" y2="1151.295" gradientTransform="matrix(1 0 0 -1 0 1728)">
		<stop  offset="0" style="stop-color:#FFFFFF"/>
		<stop  offset="1" style="stop-color:#FB89E3"/>
	</linearGradient>
	
		<linearGradient id="SVGID_10_" gradientUnits="userSpaceOnUse" x1="606.8126" y1="1151.1981" x2="611.2875" y2="1151.1981" gradientTransform="matrix(1 0 0 -1 0 1728)">
		<stop  offset="0" style="stop-color:#CFCFCF"/>
		<stop  offset="1" style="stop-color:#000000"/>
	</linearGradient>
	<path class="st8 " d="M609.4,576.4c0,0.1,0,0.2-0.1,0.4c-0.1-0.3-0.2-0.5-0.3-0.8l0,0h0.1c0,0,0.1,0,0.1,0.1l0,0l0,0c0,0,0,0,0,0.1
		l0,0c0,0,0,0,0,0.1C609.3,576.3,609.4,576.4,609.4,576.4z"/>
</g>
<linearGradient id="SVGID_11_" gradientUnits="userSpaceOnUse" x1="996.2552" y1="-396.155" x2="1019.807" y2="-409.7526" gradientTransform="matrix(0.9946 0.1034 -0.1034 0.9946 44.2152 886.951)">
	<stop  offset="0" style="stop-color:#FFFFFF"/>
	<stop  offset="1" style="stop-color:#FB89E3"/>
</linearGradient>
<linearGradient id="SVGID_12_" gradientUnits="userSpaceOnUse" x1="1003.2811" y1="-403.0529" x2="1012.8689" y2="-403.0529" gradientTransform="matrix(0.9946 0.1034 -0.1034 0.9946 44.2152 886.951)">
	<stop  offset="0" style="stop-color:#FFFFFF"/>
	<stop  offset="1" style="stop-color:#FB89E3"/>
</linearGradient>
<path class="st9 " d="M1085.5,605c0.9-1.5,1.4-2.8,2.3-4.3c0-0.3,0.3-0.3,0.3-0.5c0-0.5,0.3-1,0.3-1.8c0.3-1.8,0.9-3.5,1.7-5.1
	c2-7.6,3.2-14.9,4.9-22.2l-12.6,38.4c0.6-1.3,1.7-2.5,2.6-3.5C1085,605.7,1085.3,605.2,1085.5,605z"/>
<linearGradient id="SVGID_13_" gradientUnits="userSpaceOnUse" x1="547.9191" y1="-768.7375" x2="547.9191" y2="-768.7375" gradientTransform="matrix(0.9841 0.1771 -0.1771 0.9841 85.0495 891.3781)">
	<stop  offset="0" style="stop-color:#FFFFFF"/>
	<stop  offset="1" style="stop-color:#FB89E3"/>
</linearGradient>
<linearGradient id="SVGID_14_" gradientUnits="userSpaceOnUse" x1="547.9191" y1="-768.7375" x2="547.9191" y2="-768.7375" gradientTransform="matrix(0.9841 0.1771 -0.1771 0.9841 85.0495 891.3781)">
	<stop  offset="0" style="stop-color:#FFFFFF"/>
	<stop  offset="1" style="stop-color:#FB89E3"/>
</linearGradient>
<path class="st10 " d="M760.4,231.9"/>
<linearGradient id="SVGID_15_" gradientUnits="userSpaceOnUse" x1="491.3968" y1="424.241" x2="491.3968" y2="424.241" gradientTransform="matrix(0.9841 0.1771 -0.1771 0.9841 85.0495 891.3781)">
	<stop  offset="0" style="stop-color:#FFFFFF"/>
	<stop  offset="1" style="stop-color:#FB89E3"/>
</linearGradient>
<linearGradient id="SVGID_16_" gradientUnits="userSpaceOnUse" x1="491.3968" y1="424.241" x2="491.3968" y2="424.241" gradientTransform="matrix(0.9841 0.1771 -0.1771 0.9841 85.0495 891.3781)">
	<stop  offset="0" style="stop-color:#FFFFFF"/>
	<stop  offset="1" style="stop-color:#FB89E3"/>
</linearGradient>
<path class="st11" d="M493.5,1395.9"/>
<linearGradient id="SVGID_17_" gradientUnits="userSpaceOnUse" x1="656.3" y1="-49.9" x2="656.3" y2="-49.9" gradientTransform="matrix(1 0 0 1 0 432)">
	<stop  offset="0" style="stop-color:#FFFFFF"/>
	<stop  offset="1" style="stop-color:#FB89E3"/>
</linearGradient>
<linearGradient id="SVGID_18_" gradientUnits="userSpaceOnUse" x1="656.3" y1="-49.9" x2="656.3" y2="-49.9" gradientTransform="matrix(1 0 0 1 0 432)">
	<stop  offset="0" style="stop-color:#FFFFFF"/>
	<stop  offset="1" style="stop-color:#FB89E3"/>
</linearGradient>
<path class="st12 " d="M656.3,382.1"/>
<linearGradient id="SVGID_19_" gradientUnits="userSpaceOnUse" x1="211.0313" y1="-331.2149" x2="211.0313" y2="-331.2149" gradientTransform="matrix(0.9972 7.441179e-02 -7.441179e-02 0.9972 42.7133 865.1843)">
	<stop  offset="0" style="stop-color:#FFFFFF"/>
	<stop  offset="1" style="stop-color:#FB89E3"/>
</linearGradient>
<linearGradient id="SVGID_20_" gradientUnits="userSpaceOnUse" x1="211.0313" y1="-331.2149" x2="211.0313" y2="-331.2149" gradientTransform="matrix(0.9972 7.441179e-02 -7.441179e-02 0.9972 42.7133 865.1843)">
	<stop  offset="0" style="stop-color:#FFFFFF"/>
	<stop  offset="1" style="stop-color:#FB89E3"/>
</linearGradient>
<path class="st13 " d="M277.8,550.6"/>
<linearGradient id="SVGID_21_" gradientUnits="userSpaceOnUse" x1="130.7588" y1="-357.8249" x2="130.7588" y2="-357.8249" gradientTransform="matrix(0.9841 0.1771 -0.1771 0.9841 85.0495 891.3781)">
	<stop  offset="0" style="stop-color:#FFFFFF"/>
	<stop  offset="1" style="stop-color:#FB89E3"/>
</linearGradient>
<linearGradient id="SVGID_22_" gradientUnits="userSpaceOnUse" x1="130.7588" y1="-357.8249" x2="130.7588" y2="-357.8249" gradientTransform="matrix(0.9841 0.1771 -0.1771 0.9841 85.0495 891.3781)">
	<stop  offset="0" style="stop-color:#FFFFFF"/>
	<stop  offset="1" style="stop-color:#FB89E3"/>
</linearGradient>
<path class="st14 " d="M277.1,562.4"/>
<linearGradient id="SVGID_23_" gradientUnits="userSpaceOnUse" x1="76.5911" y1="-115.7075" x2="76.5911" y2="-115.7075" gradientTransform="matrix(0.9972 7.441179e-02 -7.441179e-02 0.9972 42.7133 865.1843)">
	<stop  offset="0" style="stop-color:#FFFFFF"/>
	<stop  offset="1" style="stop-color:#FB89E3"/>
</linearGradient>
<linearGradient id="SVGID_24_" gradientUnits="userSpaceOnUse" x1="76.5911" y1="-115.7075" x2="76.5911" y2="-115.7075" gradientTransform="matrix(0.9972 7.441179e-02 -7.441179e-02 0.9972 42.7133 865.1843)">
	<stop  offset="0" style="stop-color:#FFFFFF"/>
	<stop  offset="1" style="stop-color:#FB89E3"/>
</linearGradient>
<path class="st15" d="M127.7,755.5"/>
<linearGradient id="SVGID_25_" gradientUnits="userSpaceOnUse" x1="575.5682" y1="93.6993" x2="585.6317" y2="81.3007" gradientTransform="matrix(1 0 0 1 0 432)">
	<stop  offset="1.081081e-02" style="stop-color:#FF72FF"/>
	<stop  offset="7.297298e-02" style="stop-color:#FFAEFF"/>
	<stop  offset="9.987323e-02" style="stop-color:#FF92FF"/>
	<stop  offset="0.1401" style="stop-color:#FF6BFF"/>
	<stop  offset="0.2838" style="stop-color:#FF8FFF"/>
	<stop  offset="0.3729" style="stop-color:#FF8DFF"/>
	<stop  offset="0.4819" style="stop-color:#FF90FF"/>
	<stop  offset="0.5818" style="stop-color:#FF90FF"/>
	<stop  offset="0.6603" style="stop-color:#FFAAFF"/>
	<stop  offset="0.7542" style="stop-color:#FFA1FE"/>
	<stop  offset="0.8064" style="stop-color:#FFA3FE"/>
	<stop  offset="0.8796" style="stop-color:#FE8FFD"/>
	<stop  offset="0.9313" style="stop-color:#FE7EFC"/>
	<stop  offset="0.9442" style="stop-color:#FE75FC"/>
	<stop  offset="0.965" style="stop-color:#FE5EFB"/>
	<stop  offset="0.9838" style="stop-color:#FE43FB"/>
</linearGradient>
<path class="st16 " d="M583.5,525c2.5,4.3,4.8,8.6,7.1,12.9c-2.2-4.1-4.4-8.1-6.7-12.2c-1.1-2-2.3-4.1-3.5-6.1
	c-1.8-3.1-3.6-6.1-5.5-9.2c-0.9-1.5-1.9-3.1-2.8-4.6l0,0c-0.9-1.5-1.4-3.1-1.5-4.7C575,509,579.3,517,583.5,525z"/>
<linearGradient id="SVGID_26_" gradientUnits="userSpaceOnUse" x1="608.8918" y1="144.7449" x2="609.335" y2="144.199" gradientTransform="matrix(1 0 0 1 0 432)">
	<stop  offset="1.081081e-02" style="stop-color:#FF72FF"/>
	<stop  offset="7.297298e-02" style="stop-color:#FFAEFF"/>
	<stop  offset="9.987323e-02" style="stop-color:#FF92FF"/>
	<stop  offset="0.1401" style="stop-color:#FF6BFF"/>
	<stop  offset="0.2838" style="stop-color:#FF8FFF"/>
	<stop  offset="0.3729" style="stop-color:#FF8DFF"/>
	<stop  offset="0.4819" style="stop-color:#FF90FF"/>
	<stop  offset="0.5818" style="stop-color:#FF90FF"/>
	<stop  offset="0.6603" style="stop-color:#FFAAFF"/>
	<stop  offset="0.7542" style="stop-color:#FFA1FE"/>
	<stop  offset="0.8064" style="stop-color:#FFA3FE"/>
	<stop  offset="0.8796" style="stop-color:#FE8FFD"/>
	<stop  offset="0.9313" style="stop-color:#FE7EFC"/>
	<stop  offset="0.9442" style="stop-color:#FE75FC"/>
	<stop  offset="0.965" style="stop-color:#FE5EFB"/>
	<stop  offset="0.9838" style="stop-color:#FE43FB"/>
</linearGradient>
<path class="st17" d="M609.3,577.1c-0.1-0.4-0.3-0.7-0.5-1.1C609.5,576,609.4,576.5,609.3,577.1z"/>
<g>
	
		<linearGradient id="SVGID_27_" gradientUnits="userSpaceOnUse" x1="-1245.8312" y1="2878.5166" x2="1323.0673" y2="722.9552" gradientTransform="matrix(1 0 0 -1 0 1728)">
		<stop  offset="8.648649e-02" style="stop-color:#FF6AFF"/>
		<stop  offset="0.1085" style="stop-color:#FF7FFF"/>
		<stop  offset="0.1351" style="stop-color:#FF90FF"/>
		<stop  offset="0.1636" style="stop-color:#FF9BFF"/>
		<stop  offset="0.1973" style="stop-color:#FF9EFF"/>
		<stop  offset="0.327" style="stop-color:#FF6DFF"/>
		<stop  offset="0.5359" style="stop-color:#FF95FF"/>
		<stop  offset="0.5919" style="stop-color:#FFA1FF"/>
		<stop  offset="0.6729" style="stop-color:#FF9AFE"/>
		<stop  offset="0.746" style="stop-color:#FE66F8"/>
		<stop  offset="0.7561" style="stop-color:#FE48FA"/>
		<stop  offset="0.7677" style="stop-color:#FF2EFC"/>
		<stop  offset="0.7805" style="stop-color:#FF1AFD"/>
		<stop  offset="0.795" style="stop-color:#FF0BFE"/>
		<stop  offset="0.8123" style="stop-color:#FF03FF"/>
		<stop  offset="0.8405" style="stop-color:#FF00FF"/>
	</linearGradient>
	<path class="st18  hide-top animate-hide-top" d="M371.9,137.9l-48.3,55.8c-7.1,8.2-6.6,19.3,1.4,27.1c35.8,35,137.3,137.1,236.6,263.8
		c8.8,11.3,27.8,13.8,40.7,5.5l117.1-75.3c18.1-11.6,11.7-35.1-10.8-39.3c-128.6-23.9-244-170.3-289.9-235.8
		C408.8,125.3,383.6,124.4,371.9,137.9z"/>
	<!-- el top of tube -->
		<linearGradient id="SVGID_28_" gradientUnits="userSpaceOnUse" x1="718.6" y1="1442.4" x2="718.6" y2="1442.4" gradientTransform="matrix(1 0 0 -1 0 1728)">
		<stop  offset="8.648649e-02" style="stop-color:#FF6AFF"/>
		<stop  offset="0.1085" style="stop-color:#FF7FFF"/>
		<stop  offset="0.1351" style="stop-color:#FF90FF"/>
		<stop  offset="0.1636" style="stop-color:#FF9BFF"/>
		<stop  offset="0.1973" style="stop-color:#FF9EFF"/>
		<stop  offset="0.327" style="stop-color:#FF6DFF"/>
		<stop  offset="0.5359" style="stop-color:#FF95FF"/>
		<stop  offset="0.5919" style="stop-color:#FFA1FF"/>
		<stop  offset="0.7324" style="stop-color:#FF9AFE"/>
		<stop  offset="0.8919" style="stop-color:#FE66F8"/>
		<stop  offset="1" style="stop-color:#FF6AFF"/>
	</linearGradient>
	<path class="st19 " d="M718.6,285.6"/>
	
		<linearGradient id="SVGID_29_" gradientUnits="userSpaceOnUse" x1="-1062.9969" y1="2409.3459" x2="1371.9493" y2="366.1837" gradientTransform="matrix(1 0 0 -1 0 1728)">
		<stop  offset="3.510811e-02" style="stop-color:#FF2CFF"/>
		<stop  offset="0.1506" style="stop-color:#FF2EFF"/>
		<stop  offset="0.1811" style="stop-color:#FF32FF"/>
		<stop  offset="0.225" style="stop-color:#FF38FF"/>
		<stop  offset="0.286" style="stop-color:#FF4AFF"/>
		<stop  offset="0.3568" style="stop-color:#FF68FF"/>
		<stop  offset="0.3973" style="stop-color:#FF7CFF"/>
		<stop  offset="0.5648" style="stop-color:#FF8BFE"/>
		<stop  offset="0.746" style="stop-color:#FE46F8"/>
		<stop  offset="0.7582" style="stop-color:#FE2EFA"/>
		<stop  offset="0.7726" style="stop-color:#FF1AFC"/>
		<stop  offset="0.789" style="stop-color:#FF0BFE"/>
		<stop  offset="0.8086" style="stop-color:#FF03FF"/>
		<stop  offset="0.8405" style="stop-color:#FF00FF"/>
	</linearGradient>
	<path class="st20" d="M827.5,256.1c-0.2,0-0.3,0.1-0.5,0.1c-8.3,2.1-38.5,13.7-55.2,21.1l-6.4,3l-1.8,0.9c0.5-0.3,1-0.5,1.5-0.8
		l-1.3,0.6c-0.3,0.1-0.5,0.2-0.8,0.4c-12.4,6.6-23.7,12.9-33.7,18.4v0.1c-7.1,4-13.6,7.7-19.3,10.9c-0.4,0.2-0.7,0.4-1.1,0.6
		c-15.4,8.8-25.4,14.5-28.2,15.5c-0.4,0.1-0.9,0.3-1.3,0.5c-3.6,1.8-71.7,52.8-110.9,82.2c-15.9,12-9.8,73.3,0.1,91.1
		c0.1,0.2,0.2,0.3,0.3,0.4c0.6,1.1,1.2,2.1,1.8,3.2c3.5,6.4,7,12.9,10.5,19.4c10.9,18.8,20.3,37.4,27.9,55.6l0,0
		c0.4,0.1,0.4,0.4,0.3,0.8v0.3c0.2,0.4,0.3,0.8,0.5,1.2c38.8,95.1,22.3,175.7-132.6,187.2c-0.9,0.1-1.7,0-2.6,0
		c-18.8-2-239.3-24-260.6,76.4c-6.2,28.7-17.5,61.3-29.8,94.9c-1.4,3.4-103.2,310.7,303.8,418.6c7.2,1.9,14.7-2.1,17.1-9.2
		l27.4-83.3c2.7-8.2-2.6-17-11.1-18.4c-230.8-37.4-253.3-182-252.4-242.6c0-2.8,0.9-5.5,2.4-7.8c5.5-8.2,17.1-35.9,17.9-36.5
		c107.2-108.8,222.1-23.4,235.3-12.8c0.3,0.3,0.6,0.5,1,0.7s0.6,0.5,1,0.7c302.5,166.6,521-290.5,530.8-311.1c0.2-0.5,0.4-1,0.6-1.5
		C1192.1,244.9,999,218.9,827.5,256.1z"/>
		<!-- stomach nafsaha -->
</g>
<linearGradient id="SVGID_30_" gradientUnits="userSpaceOnUse" x1="852.8936" y1="-67.0497" x2="286.9933" y2="913.1185" gradientTransform="matrix(1 0 0 1 0 432)">
	<stop  offset="0.1027" style="stop-color:#FF6DFF"/>
	<stop  offset="0.2946" style="stop-color:#FF93FE"/>
	<stop  offset="0.3885" style="stop-color:#FF70FE"/>
	<stop  offset="0.4675" style="stop-color:#FF86FC"/>
	<stop  offset="0.5734" style="stop-color:#FE61F5"/>
	<stop  offset="0.6621" style="stop-color:#FB83E3"/>
	<stop  offset="0.9946" style="stop-color:#FB00E3"/>
</linearGradient>
<path class="st21 hide-show animate-hide-show" d="M820.4,900.8c-130.9-75.7-89.7-316.2-89.7-316.2c11.5-61.2-24.8-167.4-48.1-225.2c-9.8-24.2-17-39.8-17-39.8
	c0-130.3-123.9-88.9-123.9-88.9c-58.6,26.1-129.4-96.9-129.4-96.9l-55.1,37c152.7,153.4,152.7,153.4,152.7,153.4
	s14.9,69.6,95.9,94.6c0,0,2.8,4.1,6.9,11.6c16.2,29.4,53.1,111.7,26.5,211.2c-33.5,125.3,86.9,314.8,86.9,314.8
	s142.9,85.5,2.5,216.7c0,0-101.5,100.2-204.3,75.5l-36.8,111.8c0,0,196,101.3,143.1,183.1l157.9-14.3
	c-158.4-77.7,47.7-331.6,47.7-331.6S951.3,976.5,820.4,900.8z"/>
	<!-- el tube -->
</svg>
